<?xml version="1.0" encoding="UTF-8" standalone="no"?>
<!-- Created with Inkscape (http://www.inkscape.org/) -->

<svg
   width="300"
   height="50"
   viewBox="0 0 79.375 13.229166"
   version="1.1"
   id="svg1"
   inkscape:version="1.3 (0e150ed6c4, 2023-07-21)"
   sodipodi:docname="carrie.svg"
   xmlns:inkscape="http://www.inkscape.org/namespaces/inkscape"
   xmlns:sodipodi="http://sodipodi.sourceforge.net/DTD/sodipodi-0.dtd"
   xmlns="http://www.w3.org/2000/svg"
   xmlns:svg="http://www.w3.org/2000/svg">
  <sodipodi:namedview
     id="namedview1"
     pagecolor="#ffffff"
     bordercolor="#000000"
     borderopacity="0.25"
     inkscape:showpageshadow="2"
     inkscape:pageopacity="0.0"
     inkscape:pagecheckerboard="0"
     inkscape:deskcolor="#d1d1d1"
     inkscape:document-units="px"
     showguides="true"
     inkscape:zoom="8.4630487"
     inkscape:cx="159.93055"
     inkscape:cy="27.53145"
     inkscape:window-width="3840"
     inkscape:window-height="2066"
     inkscape:window-x="-11"
     inkscape:window-y="-11"
     inkscape:window-maximized="1"
     inkscape:current-layer="layer1">
    <sodipodi:guide
       position="74.688164,15.104968"
       orientation="1,0"
       id="guide3"
       inkscape:locked="false" />
  </sodipodi:namedview>
  <defs
     id="defs1" />
  <g
     inkscape:label="Ebene 1"
     inkscape:groupmode="layer"
     id="layer1">
    <path
       style="font-weight:bold;font-size:10.6396px;font-family:'Reem Kufi';-inkscape-font-specification:'Reem Kufi, Bold';direction:rtl;stroke-width:0.886632;fill:#008000"
       d="m 66.958174,4.6414706 q 0,-0.3298275 0.234071,-0.5532591 0.244711,-0.2234316 0.53198,-0.2234316 0.26599,0 0.500061,0.2234316 0.244711,0.2234316 0.244711,0.5532591 0,0.351107 -0.244711,0.563899 -0.234071,0.202152 -0.500061,0.202152 -0.287269,0 -0.53198,-0.202152 -0.234071,-0.212792 -0.234071,-0.563899 z"
       id="path7" />
    <path
       style="font-weight:bold;font-size:10.6396px;font-family:'Reem Kufi';-inkscape-font-specification:'Reem Kufi, Bold';direction:rtl;stroke-width:0.886632"
       d="m 72.266383,10.975022 q -0.851168,0 -1.446986,-0.319188 -0.585178,-0.319188 -0.893726,-0.8830873 -0.308549,-0.5638988 -0.308549,-1.2980311 0,-0.7022136 0.361747,-1.2661124 0.361746,-0.5638988 0.968203,-0.8937264 0.606458,-0.3404672 1.35123,-0.3404672 1.000122,0 1.638498,0.585178 0.649016,0.5745384 0.840528,1.6704172 l -3.404672,1.0852391 q 0.340468,0.3936652 0.925646,0.3936652 0.24471,0 0.468142,-0.085117 0.234071,-0.085117 0.457503,-0.2234316 l 0.659655,1.1065185 q -0.372386,0.212792 -0.80861,0.340467 -0.425584,0.127676 -0.808609,0.127676 z M 71.085388,8.4853552 73.128191,7.7937812 Q 73.032435,7.5277912 72.819643,7.3362784 72.606851,7.134126 72.181267,7.134126 q -0.500061,0 -0.79797,0.3404672 -0.297909,0.3404672 -0.297909,0.9150056 0,0.042558 0,0.095756 z"
       id="path6" />
    <path
       style="font-weight:bold;font-size:10.6396px;font-family:'Reem Kufi';-inkscape-font-specification:'Reem Kufi, Bold';direction:rtl;stroke-width:0.886632"
       d="m 66.95722,6.1978412 h 1.489544 V 10.847346 H 66.95722 Z"
       id="path4" />
    <path
       style="font-weight:bold;font-size:10.6396px;font-family:'Reem Kufi';-inkscape-font-specification:'Reem Kufi, Bold';direction:rtl;stroke-width:0.886632"
       d="m 63.935575,6.1978412 0.117036,1.06396 Q 64.254763,6.8574964 64.60587,6.5702272 64.956977,6.2723184 65.297444,6.123364 65.637911,5.96377 65.818784,5.96377 l -0.07448,1.489544 Q 65.222967,7.3894764 64.850581,7.6235476 64.478195,7.8576188 64.276042,8.2406444 64.07389,8.6236699 64.07389,9.0279747 V 10.847346 H 62.594985 V 6.1978412 Z"
       id="path3" />
    <path
       style="font-weight:bold;font-size:10.6396px;font-family:'Reem Kufi';-inkscape-font-specification:'Reem Kufi, Bold';direction:rtl;stroke-width:0.886632"
       d="m 59.57334,6.1978412 0.117036,1.06396 Q 59.892528,6.8574964 60.243635,6.5702272 60.594742,6.2723184 60.935209,6.123364 61.275676,5.96377 61.456549,5.96377 l -0.07448,1.489544 Q 60.860732,7.3894764 60.488346,7.6235476 60.11596,7.8576188 59.913807,8.2406444 59.711655,8.6236699 59.711655,9.0279747 V 10.847346 H 58.23275 V 6.1978412 Z"
       id="path2" />
    <path
       style="font-weight:bold;font-size:10.6396px;font-family:'Reem Kufi';-inkscape-font-specification:'Reem Kufi, Bold';direction:rtl;stroke-width:0.886632"
       d="m 53.657719,10.975022 q -0.649016,0 -1.180996,-0.255351 -0.52134,-0.26599 -0.829888,-0.8086095 -0.308549,-0.5426196 -0.308549,-1.383148 0,-0.7873303 0.319188,-1.3618687 0.319188,-0.5745384 0.840529,-0.8830868 0.52134,-0.319188 1.106518,-0.319188 0.680934,0 1.032041,0.2234316 0.351107,0.212792 0.585178,0.4894216 l 0.09576,-0.478782 h 1.383148 v 4.6495048 h -1.489544 v -0.574538 q -0.106396,0.106396 -0.319188,0.27663 -0.202153,0.170233 -0.510701,0.297908 -0.308549,0.127676 -0.723493,0.127676 z m 0.425584,-1.2129149 q 0.776691,0 1.127798,-0.7022136 V 7.9214564 Q 55.083425,7.5809892 54.764237,7.3788368 54.455689,7.1766844 54.030105,7.1766844 q -0.478782,0 -0.829889,0.3617464 -0.351107,0.3511068 -0.351107,0.9150056 0,0.3723859 0.170234,0.6702947 0.170234,0.2979088 0.446863,0.4681424 0.287269,0.1702336 0.617097,0.1702336 z"
       id="path1" />
    <path
       style="font-weight:bold;font-size:10.6396px;font-family:'Reem Kufi';-inkscape-font-specification:'Reem Kufi, Bold';direction:rtl;stroke-width:0.886632"
       d="m 50.550955,10.432402 q -0.308548,0.244711 -0.776691,0.393665 -0.457503,0.148955 -0.904366,0.148955 -1.191635,0 -1.915128,-0.649016 -0.712853,-0.6490157 -0.712853,-1.8087321 0,-0.7766907 0.351107,-1.3193103 0.351107,-0.5532592 0.915006,-0.8405284 0.574538,-0.2872692 1.202274,-0.2872692 0.627737,0 1.085239,0.1702336 0.468143,0.1702336 0.79797,0.4468632 l -0.723492,0.957564 Q 49.721066,7.5277912 49.455076,7.4107556 49.199726,7.2830804 48.848619,7.2830804 q -0.457503,0 -0.78733,0.3511068 -0.329828,0.3404672 -0.329828,0.8830867 0,0.5213404 0.340467,0.8830868 0.351107,0.3617464 0.925645,0.3617464 0.489422,0 0.80861,-0.26599 z"
       id="text1" />
  </g>
</svg>
