<?xml version="1.0" encoding="UTF-8" standalone="no"?>
<!-- Created with Inkscape (http://www.inkscape.org/) -->

<svg
   width="300"
   height="50"
   viewBox="0 0 79.375 13.229166"
   version="1.1"
   id="svg1"
   inkscape:version="1.3 (0e150ed6c4, 2023-07-21)"
   sodipodi:docname="daniel.svg"
   xmlns:inkscape="http://www.inkscape.org/namespaces/inkscape"
   xmlns:sodipodi="http://sodipodi.sourceforge.net/DTD/sodipodi-0.dtd"
   xmlns="http://www.w3.org/2000/svg"
   xmlns:svg="http://www.w3.org/2000/svg">
  <sodipodi:namedview
     id="namedview1"
     pagecolor="#ffffff"
     bordercolor="#000000"
     borderopacity="0.25"
     inkscape:showpageshadow="2"
     inkscape:pageopacity="0.0"
     inkscape:pagecheckerboard="0"
     inkscape:deskcolor="#d1d1d1"
     inkscape:document-units="px"
     showguides="true"
     inkscape:zoom="8.4630487"
     inkscape:cx="159.93055"
     inkscape:cy="27.53145"
     inkscape:window-width="3840"
     inkscape:window-height="2066"
     inkscape:window-x="-11"
     inkscape:window-y="-11"
     inkscape:window-maximized="1"
     inkscape:current-layer="layer1">
    <sodipodi:guide
       position="74.688164,15.104968"
       orientation="1,0"
       id="guide3"
       inkscape:locked="false" />
  </sodipodi:namedview>
  <defs
     id="defs1" />
  <g
     inkscape:label="Ebene 1"
     inkscape:groupmode="layer"
     id="layer1">
    <path
       style="font-weight:bold;font-size:10.6396px;font-family:'Reem Kufi';-inkscape-font-specification:'Reem Kufi, Bold';direction:rtl;stroke-width:0.886632;fill:#ff6600"
       d="m 63.92295,4.7352607 q 0,-0.3298275 0.234071,-0.5532591 0.244711,-0.2234316 0.53198,-0.2234316 0.26599,0 0.500062,0.2234316 0.24471,0.2234316 0.24471,0.5532591 0,0.351107 -0.24471,0.563899 -0.234072,0.202152 -0.500062,0.202152 -0.287269,0 -0.53198,-0.202152 -0.234071,-0.212792 -0.234071,-0.563899 z"
       id="path7" />
    <path
       style="font-weight:bold;font-size:10.6396px;font-family:'Reem Kufi';-inkscape-font-specification:'Reem Kufi, Bold';direction:rtl;stroke-width:0.886632"
       d="m 72.840913,2.4527021 h 1.489544 v 8.3946439 h -1.489544 z"
       id="path6" />
    <path
       style="font-weight:bold;font-size:10.6396px;font-family:'Reem Kufi';-inkscape-font-specification:'Reem Kufi, Bold';direction:rtl;stroke-width:0.886632"
       d="m 69.244732,10.975022 q -0.851168,0 -1.446986,-0.319188 -0.585177,-0.319188 -0.893726,-0.8830873 -0.308548,-0.5638988 -0.308548,-1.2980311 0,-0.7022136 0.361746,-1.2661124 0.361747,-0.5638988 0.968204,-0.8937264 0.606457,-0.3404672 1.351229,-0.3404672 1.000122,0 1.638498,0.585178 0.649016,0.5745384 0.840529,1.6704172 l -3.404672,1.0852391 q 0.340467,0.3936652 0.925645,0.3936652 0.244711,0 0.468142,-0.085117 0.234071,-0.085117 0.457503,-0.2234316 l 0.659655,1.1065185 q -0.372386,0.212792 -0.808609,0.340467 -0.425584,0.127676 -0.80861,0.127676 z M 68.063737,8.4853552 70.106541,7.7937812 Q 70.010784,7.5277912 69.797992,7.3362784 69.5852,7.134126 69.159616,7.134126 q -0.500061,0 -0.79797,0.3404672 -0.297909,0.3404672 -0.297909,0.9150056 0,0.042558 0,0.095756 z"
       id="path5" />
    <path
       style="font-weight:bold;font-size:10.6396px;font-family:'Reem Kufi';-inkscape-font-specification:'Reem Kufi, Bold';direction:rtl;stroke-width:0.886632"
       d="m 63.935569,6.1978412 h 1.489544 v 4.6495048 h -1.489544 z"
       id="path3" />
    <path
       style="font-weight:bold;font-size:10.6396px;font-family:'Reem Kufi';-inkscape-font-specification:'Reem Kufi, Bold';direction:rtl;stroke-width:0.886632"
       d="m 58.966877,6.1978412 0.106396,0.744772 q 0.244711,-0.4362236 0.691574,-0.7022136 0.446864,-0.26599 1.08524,-0.26599 0.659655,0 1.095878,0.3936652 0.446864,0.3830256 0.457503,1.0001224 V 10.847346 H 60.913924 V 7.9214564 Q 60.903285,7.612908 60.743691,7.4320348 60.594736,7.240522 60.23299,7.240522 q -0.521341,0 -0.829889,0.4894216 -0.297909,0.478782 -0.297909,1.2235539 V 10.847346 H 57.615648 V 6.1978412 Z"
       id="path2" />
    <path
       style="font-weight:bold;font-size:10.6396px;font-family:'Reem Kufi';-inkscape-font-specification:'Reem Kufi, Bold';direction:rtl;stroke-width:0.886632"
       d="m 53.040617,10.975022 q -0.649016,0 -1.180996,-0.255351 -0.52134,-0.26599 -0.829888,-0.8086095 -0.308549,-0.5426196 -0.308549,-1.383148 0,-0.7873303 0.319188,-1.3618687 0.319188,-0.5745384 0.840529,-0.8830868 0.52134,-0.319188 1.106518,-0.319188 0.680934,0 1.032041,0.2234316 0.351107,0.212792 0.585178,0.4894216 l 0.09576,-0.478782 h 1.383148 v 4.6495048 h -1.489544 v -0.574538 q -0.106396,0.106396 -0.319188,0.27663 -0.202152,0.170233 -0.5107,0.297908 -0.308549,0.127676 -0.723493,0.127676 z m 0.425584,-1.2129149 q 0.776691,0 1.127797,-0.7022136 V 7.9214564 Q 54.466323,7.5809892 54.147135,7.3788368 53.838587,7.1766844 53.413003,7.1766844 q -0.478782,0 -0.829889,0.3617464 -0.351107,0.3511068 -0.351107,0.9150056 0,0.3723859 0.170234,0.6702947 0.170234,0.2979088 0.446863,0.4681424 0.287269,0.1702336 0.617097,0.1702336 z"
       id="path1" />
    <path
       style="font-weight:bold;font-size:10.6396px;font-family:'Reem Kufi';-inkscape-font-specification:'Reem Kufi, Bold';direction:rtl;stroke-width:0.886632"
       d="m 46.337663,10.975022 q -0.649016,0 -1.159717,-0.297909 -0.5107,-0.308549 -0.808609,-0.8830871 -0.287269,-0.5745384 -0.287269,-1.3618687 0,-0.7873304 0.319188,-1.3405896 0.319187,-0.5532592 0.872447,-0.8405284 0.553259,-0.2872692 1.255472,-0.2872692 0.446864,0 0.851168,0.1383148 0.414945,0.1383148 0.691574,0.425584 V 2.4527021 h 1.478905 v 8.3946439 h -1.489544 v -0.489421 q -0.340467,0.26599 -0.766051,0.446863 -0.425584,0.170234 -0.957564,0.170234 z m 0.489421,-1.2554733 q 0.446863,0 0.744772,-0.1702336 0.297909,-0.1808732 0.489422,-0.53198 V 7.878898 Q 47.933603,7.5384308 47.603775,7.3362784 47.273947,7.134126 46.827084,7.134126 q -0.329827,0 -0.617097,0.1702336 -0.276629,0.159594 -0.446863,0.4468632 -0.170233,0.2872692 -0.170233,0.6596552 0,0.3723859 0.170233,0.6702947 0.170234,0.2979088 0.446863,0.4681424 0.28727,0.1702336 0.617097,0.1702336 z"
       id="text1" />
  </g>
</svg>
