<?xml version="1.0" encoding="UTF-8" standalone="no"?>
<!-- Created with Inkscape (http://www.inkscape.org/) -->

<svg
   width="300"
   height="50"
   viewBox="0 0 79.375 13.229166"
   version="1.1"
   id="svg1"
   inkscape:version="1.3 (0e150ed6c4, 2023-07-21)"
   sodipodi:docname="expertise.svg"
   xmlns:inkscape="http://www.inkscape.org/namespaces/inkscape"
   xmlns:sodipodi="http://sodipodi.sourceforge.net/DTD/sodipodi-0.dtd"
   xmlns="http://www.w3.org/2000/svg"
   xmlns:svg="http://www.w3.org/2000/svg">
  <sodipodi:namedview
     id="namedview1"
     pagecolor="#ffffff"
     bordercolor="#000000"
     borderopacity="0.25"
     inkscape:showpageshadow="2"
     inkscape:pageopacity="0.0"
     inkscape:pagecheckerboard="0"
     inkscape:deskcolor="#d1d1d1"
     inkscape:document-units="px"
     showguides="true"
     inkscape:zoom="8.4630487"
     inkscape:cx="159.93055"
     inkscape:cy="27.53145"
     inkscape:window-width="3840"
     inkscape:window-height="2066"
     inkscape:window-x="-11"
     inkscape:window-y="-11"
     inkscape:window-maximized="1"
     inkscape:current-layer="layer1">
    <sodipodi:guide
       position="74.688164,15.104968"
       orientation="1,0"
       id="guide3"
       inkscape:locked="false" />
  </sodipodi:namedview>
  <defs
     id="defs1" />
  <g
     inkscape:label="Ebene 1"
     inkscape:groupmode="layer"
     id="layer1">
    <g
       id="g12"
       transform="translate(0,-0.52916665)">
      <path
         style="font-weight:bold;font-size:10.6396px;font-family:'Reem Kufi';-inkscape-font-specification:'Reem Kufi, Bold';direction:rtl;fill:#0000ff;stroke-width:0.886632"
         d="m 62.163371,4.5789439 q 0,-0.3298275 0.234071,-0.5532591 0.244711,-0.2234316 0.53198,-0.2234316 0.26599,0 0.500061,0.2234316 0.244711,0.2234316 0.244711,0.5532591 0,0.351107 -0.244711,0.563899 -0.234071,0.202152 -0.500061,0.202152 -0.287269,0 -0.53198,-0.202152 -0.234071,-0.212792 -0.234071,-0.563899 z"
         id="path12" />
      <path
         style="font-weight:bold;font-size:10.6396px;font-family:'Reem Kufi';-inkscape-font-specification:'Reem Kufi, Bold';direction:rtl;stroke-width:0.886632"
         d="m 72.266384,10.975023 q -0.851168,0 -1.446985,-0.319188 -0.585178,-0.319188 -0.893727,-0.8830873 -0.308548,-0.5638988 -0.308548,-1.2980311 0,-0.7022136 0.361746,-1.2661124 0.361747,-0.5638988 0.968204,-0.8937264 0.606457,-0.3404672 1.351229,-0.3404672 1.000122,0 1.638498,0.585178 0.649016,0.5745384 0.840529,1.6704172 l -3.404672,1.0852391 q 0.340467,0.3936652 0.925645,0.3936652 0.244711,0 0.468142,-0.085117 0.234072,-0.085117 0.457503,-0.2234316 l 0.659655,1.1065185 q -0.372386,0.212792 -0.808609,0.340467 -0.425584,0.127676 -0.80861,0.127676 z M 71.08539,8.4853552 73.128193,7.7937812 Q 73.032436,7.5277912 72.819644,7.3362784 72.606852,7.134126 72.181268,7.134126 q -0.500061,0 -0.79797,0.3404672 -0.297908,0.3404672 -0.297908,0.9150056 0,0.042558 0,0.095756 z"
         id="path11" />
      <path
         style="font-weight:bold;font-size:10.6396px;font-family:'Reem Kufi';-inkscape-font-specification:'Reem Kufi, Bold';direction:rtl;stroke-width:0.886632"
         d="m 66.733784,10.943103 q -0.574538,0 -1.074599,-0.202153 -0.489422,-0.202152 -0.829889,-0.563898 l 0.617097,-0.8192497 q 0.340467,0.3085484 0.627736,0.4468632 0.297909,0.1276752 0.53198,0.1276752 0.27663,0 0.457503,-0.085117 0.180873,-0.085117 0.180873,-0.2766296 0,-0.1808732 -0.148954,-0.2872692 Q 66.957217,9.1769291 66.733785,9.1130915 66.510354,9.0386143 66.255003,8.9641371 65.616627,8.7619847 65.329358,8.3789592 65.052729,7.985294 65.052729,7.5277912 q 0,-0.3511068 0.180873,-0.7022136 0.191513,-0.3617464 0.595817,-0.5958176 0.414945,-0.2447108 1.06396,-0.2447108 0.585178,0 0.989483,0.1170356 0.404305,0.1170356 0.766051,0.3830256 l -0.563898,0.8724472 q -0.202153,-0.159594 -0.457503,-0.26599 -0.244711,-0.1170356 -0.457503,-0.1276752 -0.287269,-0.01064 -0.446863,0.106396 -0.159594,0.106396 -0.159594,0.2553504 -0.01064,0.2553504 0.234071,0.372386 0.25535,0.106396 0.563899,0.1915128 0.07448,0.021279 0.138315,0.042558 0.07448,0.021279 0.138314,0.042558 0.500062,0.1702336 0.79797,0.4894216 0.297909,0.3085483 0.297909,0.8298887 0,0.425584 -0.223431,0.8086091 -0.212792,0.372386 -0.659656,0.606458 -0.436223,0.234071 -1.117158,0.234071 z"
         id="path10" />
      <path
         style="font-weight:bold;font-size:10.6396px;font-family:'Reem Kufi';-inkscape-font-specification:'Reem Kufi, Bold';direction:rtl;stroke-width:0.886632"
         d="m 62.201314,6.1978412 h 1.489544 v 4.6495048 h -1.489544 z"
         id="path8" />
      <path
         style="font-weight:bold;font-size:10.6396px;font-family:'Reem Kufi';-inkscape-font-specification:'Reem Kufi, Bold';direction:rtl;stroke-width:0.886632"
         d="m 58.445544,4.155038 h 1.489544 v 2.021524 h 1.127797 V 7.3362784 H 59.935088 V 10.847346 H 58.445544 V 7.3362784 H 57.722051 V 6.176562 h 0.723493 z"
         id="path7" />
      <path
         style="font-weight:bold;font-size:10.6396px;font-family:'Reem Kufi';-inkscape-font-specification:'Reem Kufi, Bold';direction:rtl;stroke-width:0.886632"
         d="m 54.987676,6.1978412 0.117035,1.06396 Q 55.306864,6.8574964 55.65797,6.5702272 56.009077,6.2723184 56.349544,6.123364 56.690012,5.96377 56.870885,5.96377 l -0.07448,1.489544 Q 56.275067,7.3894764 55.902681,7.6235476 55.530295,7.8576188 55.328143,8.2406444 55.12599,8.6236699 55.12599,9.0279747 V 10.847346 H 53.647086 V 6.1978412 Z"
         id="path6" />
      <path
         style="font-weight:bold;font-size:10.6396px;font-family:'Reem Kufi';-inkscape-font-specification:'Reem Kufi, Bold';direction:rtl;stroke-width:0.886632"
         d="m 50.050906,10.975022 q -0.851168,0 -1.446985,-0.319188 -0.585178,-0.319188 -0.893727,-0.8830873 -0.308548,-0.5638988 -0.308548,-1.2980311 0,-0.7022136 0.361746,-1.2661124 0.361747,-0.5638988 0.968204,-0.8937264 0.606457,-0.3404672 1.351229,-0.3404672 1.000122,0 1.638498,0.585178 0.649016,0.5745384 0.840529,1.6704172 L 49.15718,9.3152439 q 0.340467,0.3936652 0.925645,0.3936652 0.244711,0 0.468142,-0.085117 0.234072,-0.085117 0.457503,-0.2234316 l 0.659655,1.1065185 q -0.372386,0.212792 -0.808609,0.340467 -0.425584,0.127676 -0.80861,0.127676 z M 48.869911,8.4853552 50.912714,7.7937812 Q 50.816957,7.5277912 50.604165,7.3362784 50.391373,7.134126 49.965789,7.134126 q -0.500061,0 -0.79797,0.3404672 -0.297908,0.3404672 -0.297908,0.9150056 0,0.042558 0,0.095756 z"
         id="path5" />
      <path
         style="font-weight:bold;font-size:10.6396px;font-family:'Reem Kufi';-inkscape-font-specification:'Reem Kufi, Bold';direction:rtl;stroke-width:0.886632"
         d="m 44.039526,10.975022 q -0.393665,0 -0.78733,-0.138315 -0.383026,-0.148955 -0.649016,-0.414945 v 2.6599 H 41.124276 V 6.0914452 h 1.276752 l 0.127675,0.5532592 Q 42.89045,6.3574352 43.326673,6.1659224 43.773536,5.96377 44.337435,5.96377 q 0.649016,0 1.159716,0.3085484 0.510701,0.2979088 0.79797,0.8724472 0.297909,0.5638988 0.297909,1.3618687 0,0.7873304 -0.329827,1.3405896 -0.329828,0.5532591 -0.904366,0.8405281 -0.574539,0.28727 -1.319311,0.28727 z M 43.741618,9.8046655 q 0.361746,0 0.659655,-0.159594 0.308548,-0.159594 0.489421,-0.4468632 0.191513,-0.2979088 0.191513,-0.6702948 0,-0.5958175 -0.361746,-0.9469243 -0.361747,-0.3617464 -0.872447,-0.3617464 -0.446864,0 -0.744772,0.1808732 -0.297909,0.1702336 -0.489422,0.5213404 v 1.1384371 q 0.117036,0.3404672 0.414944,0.5426196 0.308549,0.2021524 0.712854,0.2021524 z"
         id="path4" />
      <path
         style="font-weight:bold;font-size:10.6396px;font-family:'Reem Kufi';-inkscape-font-specification:'Reem Kufi, Bold';direction:rtl;stroke-width:0.886632"
         d="M 40.251818,10.847346 H 38.453726 L 37.379127,9.4535587 36.400283,10.847346 H 34.921379 L 36.644994,8.5066343 34.868181,6.1978412 h 1.830011 l 1.021402,1.3405896 0.79797,-1.3405896 h 1.478904 l -1.59594,2.2236764 z"
         id="path3" />
      <path
         style="font-weight:bold;font-size:10.6396px;font-family:'Reem Kufi';-inkscape-font-specification:'Reem Kufi, Bold';direction:rtl;stroke-width:0.886632"
         d="m 32.091244,10.975022 q -0.851168,0 -1.446985,-0.319188 -0.585178,-0.319188 -0.893727,-0.8830873 -0.308548,-0.5638988 -0.308548,-1.2980311 0,-0.7022136 0.361746,-1.2661124 0.361747,-0.5638988 0.968204,-0.8937264 0.606457,-0.3404672 1.351229,-0.3404672 1.000123,0 1.638499,0.585178 0.649015,0.5745384 0.840528,1.6704172 l -3.404672,1.0852391 q 0.340467,0.3936652 0.925645,0.3936652 0.244711,0 0.468143,-0.085117 0.234071,-0.085117 0.457502,-0.2234316 l 0.659656,1.1065185 q -0.372386,0.212792 -0.80861,0.340467 -0.425584,0.127676 -0.80861,0.127676 z M 30.910249,8.4853552 32.953052,7.7937812 Q 32.857296,7.5277912 32.644504,7.3362784 32.431712,7.134126 32.006128,7.134126 q -0.500062,0 -0.79797,0.3404672 -0.297909,0.3404672 -0.297909,0.9150056 0,0.042558 0,0.095756 z"
         id="text1" />
    </g>
  </g>
</svg>
