<?xml version="1.0" encoding="UTF-8" standalone="no"?>
<!-- Created with Inkscape (http://www.inkscape.org/) -->

<svg
   width="300"
   height="50"
   viewBox="0 0 79.375 13.229166"
   version="1.1"
   id="svg1"
   inkscape:version="1.3 (0e150ed6c4, 2023-07-21)"
   sodipodi:docname="info.svg"
   xmlns:inkscape="http://www.inkscape.org/namespaces/inkscape"
   xmlns:sodipodi="http://sodipodi.sourceforge.net/DTD/sodipodi-0.dtd"
   xmlns="http://www.w3.org/2000/svg"
   xmlns:svg="http://www.w3.org/2000/svg">
  <sodipodi:namedview
     id="namedview1"
     pagecolor="#ffffff"
     bordercolor="#000000"
     borderopacity="0.25"
     inkscape:showpageshadow="2"
     inkscape:pageopacity="0.0"
     inkscape:pagecheckerboard="0"
     inkscape:deskcolor="#d1d1d1"
     inkscape:document-units="px"
     showguides="true"
     inkscape:zoom="8.4630487"
     inkscape:cx="159.93055"
     inkscape:cy="27.53145"
     inkscape:window-width="3840"
     inkscape:window-height="2066"
     inkscape:window-x="-11"
     inkscape:window-y="-11"
     inkscape:window-maximized="1"
     inkscape:current-layer="layer1">
    <sodipodi:guide
       position="74.688164,15.104968"
       orientation="1,0"
       id="guide3"
       inkscape:locked="false" />
  </sodipodi:namedview>
  <defs
     id="defs1" />
  <g
     inkscape:label="Ebene 1"
     inkscape:groupmode="layer"
     id="layer1">
    <path
       style="font-weight:bold;font-size:10.6396px;font-family:'Reem Kufi';-inkscape-font-specification:'Reem Kufi, Bold';direction:rtl;stroke-width:0.886632;fill:#ff0000"
       d="m 56.107565,4.5164172 q 0,-0.3298271 0.234071,-0.5532587 0.244711,-0.2234316 0.53198,-0.2234316 0.26599,0 0.500061,0.2234316 0.244711,0.2234316 0.244711,0.5532587 0,0.351107 -0.244711,0.563899 -0.234071,0.202152 -0.500061,0.202152 -0.287269,0 -0.53198,-0.202152 -0.234071,-0.212792 -0.234071,-0.563899 z"
       id="path5" />
    <path
       style="font-weight:bold;font-size:10.6396px;font-family:'Reem Kufi';-inkscape-font-specification:'Reem Kufi, Bold';direction:rtl;stroke-width:0.886632"
       d="m 69.425613,8.464076 q 0,-0.7128532 0.329828,-1.276752 0.340467,-0.5638988 0.946924,-0.8830868 0.606457,-0.3298276 1.393787,-0.3298276 0.79797,0 1.383148,0.3298276 0.585178,0.319188 0.893727,0.8830868 0.319188,0.5638988 0.319188,1.276752 0,0.7128531 -0.319188,1.2873915 -0.308549,0.5638985 -0.893727,0.8937265 -0.585178,0.329828 -1.404427,0.329828 -0.766051,0 -1.372508,-0.297909 Q 70.106548,10.379204 69.766081,9.8153051 69.425614,9.2514063 69.425613,8.464076 Z m 1.500183,0.01064 q 0,0.5532591 0.319188,0.9256451 0.319188,0.3617464 0.80861,0.3617464 0.52134,0 0.829889,-0.3617464 0.308548,-0.372386 0.308548,-0.9256451 0,-0.5532592 -0.308548,-0.9150056 -0.308549,-0.372386 -0.829889,-0.372386 -0.489422,0 -0.80861,0.372386 -0.319188,0.3617464 -0.319188,0.9150056 z"
       id="path4" />
    <path
       style="font-weight:bold;font-size:10.6396px;font-family:'Reem Kufi';-inkscape-font-specification:'Reem Kufi, Bold';direction:rtl;stroke-width:0.886632"
       d="M 65.925198,10.847346 V 7.4958724 h -0.78733 V 6.176562 h 0.787331 V 4.5593428 q 0,-0.9150056 0.52134,-1.4895439 0.53198,-0.585178 1.532102,-0.585178 0.297909,0 0.659656,0.095756 0.372386,0.085117 0.649015,0.2872692 L 68.659576,3.942246 Q 68.55318,3.8039312 68.404225,3.7613728 q -0.138314,-0.053198 -0.26599,-0.053198 -0.319188,0 -0.52134,0.212792 -0.202152,0.212792 -0.202152,0.6809344 V 6.176562 h 1.404427 v 1.3193104 h -1.404427 v 3.3514736 z"
       id="path3" />
    <path
       style="font-weight:bold;font-size:10.6396px;font-family:'Reem Kufi';-inkscape-font-specification:'Reem Kufi, Bold';direction:rtl;stroke-width:0.886632"
       d="m 60.509643,6.1978412 0.106396,0.744772 q 0.244711,-0.4362236 0.691574,-0.7022136 0.446863,-0.26599 1.085239,-0.26599 0.659655,0 1.095879,0.3936652 0.446863,0.3830256 0.457503,1.0001224 V 10.847346 H 62.456691 V 7.9214564 Q 62.446051,7.612908 62.286457,7.4320348 62.137503,7.240522 61.775757,7.240522 q -0.521341,0 -0.829889,0.4894216 -0.297909,0.478782 -0.297909,1.2235539 V 10.847346 H 59.158415 V 6.1978412 Z"
       id="path2" />
    <path
       style="font-weight:bold;font-size:10.6396px;font-family:'Reem Kufi';-inkscape-font-specification:'Reem Kufi, Bold';direction:rtl;stroke-width:0.886632"
       d="m 56.136764,6.1978412 h 1.489544 v 4.6495048 h -1.489544 z"
       id="text1" />
  </g>
</svg>
