<?xml version="1.0" encoding="UTF-8" standalone="no"?>
<!-- Created with Inkscape (http://www.inkscape.org/) -->

<svg
   width="300"
   height="300"
   viewBox="0 0 300 300"
   version="1.1"
   id="svg1"
   inkscape:version="1.3 (0e150ed6c4, 2023-07-21)"
   sodipodi:docname="logo5.svg"
   xml:space="preserve"
   xmlns:inkscape="http://www.inkscape.org/namespaces/inkscape"
   xmlns:sodipodi="http://sodipodi.sourceforge.net/DTD/sodipodi-0.dtd"
   xmlns="http://www.w3.org/2000/svg"
   xmlns:svg="http://www.w3.org/2000/svg"><sodipodi:namedview
     id="namedview1"
     pagecolor="#ffffff"
     bordercolor="#000000"
     borderopacity="0.25"
     inkscape:showpageshadow="2"
     inkscape:pageopacity="0.0"
     inkscape:pagecheckerboard="0"
     inkscape:deskcolor="#d1d1d1"
     inkscape:document-units="px"
     inkscape:zoom="6.1033333"
     inkscape:cx="150.08192"
     inkscape:cy="150.08192"
     inkscape:window-width="3840"
     inkscape:window-height="2066"
     inkscape:window-x="-11"
     inkscape:window-y="-11"
     inkscape:window-maximized="1"
     inkscape:current-layer="layer3"
     showguides="true" /><defs
     id="defs1"><rect
       x="92.572365"
       y="108.95685"
       width="46.368105"
       height="12.288367"
       id="rect2" /><style
       type="text/css"
       id="style1"><![CDATA[
    .svglite line, .svglite polyline, .svglite polygon, .svglite path, .svglite rect, .svglite circle {
      fill: none;
      stroke: #000000;
      stroke-linecap: round;
      stroke-linejoin: round;
      stroke-miterlimit: 10.00;
    }
    .svglite text {
      white-space: pre;
    }
  ]]></style><clipPath
       id="cpMC4wMHwyMTYuMDB8MC4wMHwyMTYuMDA="><rect
         x="0.00"
         y="0.00"
         width="216.00"
         height="216.00"
         id="rect2-0" /></clipPath><clipPath
       id="cpMC4wMHwyMTYuMDB8MC4wMHwyMTYuMDA=-8"><rect
         x="0"
         y="0"
         width="216"
         height="216"
         id="rect2-09" /></clipPath></defs><g
     inkscape:groupmode="layer"
     id="layer3"
     inkscape:label="Ebene 2"><g
       clip-path="url(#cpMC4wMHwyMTYuMDB8MC4wMHwyMTYuMDA=-8)"
       id="g9"
       transform="matrix(1.4408461,0,0,1.4854806,-5.3303737,-20.579201)"><polygon
         points="47.1,64.7 49.59,65.53 52.07,66.35 54.56,67.16 57.04,67.97 59.53,68.78 62.02,69.57 64.5,70.36 66.99,71.14 69.47,71.92 71.96,72.69 74.44,73.44 76.93,74.19 79.42,74.93 81.9,75.65 84.39,76.37 86.87,77.07 89.36,77.75 91.84,78.43 94.33,79.08 96.81,79.72 99.3,80.34 101.79,80.95 104.27,81.53 106.76,82.09 109.24,82.63 111.73,83.14 114.21,83.63 116.7,84.09 119.19,84.52 121.67,84.93 124.16,85.31 126.64,85.65 129.13,85.97 131.61,86.26 134.1,86.51 136.58,86.74 139.07,86.93 141.56,87.09 144.04,87.23 146.53,87.33 149.01,87.41 151.5,87.46 153.98,87.49 156.47,87.49 158.96,87.47 161.44,87.42 163.93,87.36 166.41,87.27 168.9,87.17 171.38,87.05 173.87,86.92 176.35,86.77 178.84,86.6 181.33,86.42 183.81,86.23 186.3,86.03 188.78,85.82 191.27,85.6 193.75,85.37 196.24,85.13 198.72,84.88 201.21,84.63 203.7,84.36 206.18,84.09 206.18,132.93 203.7,132.13 201.21,131.33 198.72,130.54 196.24,129.76 193.75,128.99 191.27,128.23 188.78,127.47 186.3,126.73 183.81,125.99 181.33,125.27 178.84,124.56 176.35,123.86 173.87,123.18 171.38,122.51 168.9,121.86 166.41,121.22 163.93,120.61 161.44,120.01 158.96,119.43 156.47,118.88 153.98,118.35 151.5,117.84 149.01,117.36 146.53,116.9 144.04,116.48 141.56,116.08 139.07,115.71 136.58,115.37 134.1,115.06 131.61,114.78 129.13,114.54 126.64,114.32 124.16,114.14 121.67,113.98 119.19,113.85 116.7,113.75 114.21,113.68 111.73,113.64 109.24,113.62 106.76,113.63 104.27,113.65 101.79,113.7 99.3,113.77 96.81,113.86 94.33,113.97 91.84,114.09 89.36,114.23 86.87,114.39 84.39,114.55 81.9,114.73 79.42,114.93 76.93,115.13 74.44,115.35 71.96,115.57 69.47,115.8 66.99,116.05 64.5,116.3 62.02,116.55 59.53,116.82 57.04,117.09 54.56,117.37 52.07,117.65 49.59,117.94 47.1,118.23 44.62,118.53 42.13,118.83 39.65,119.13 37.16,119.44 34.67,119.76 32.19,120.07 29.7,120.39 27.22,120.72 24.73,121.04 22.25,121.37 19.76,121.7 17.28,122.04 14.79,122.37 12.3,122.71 9.82,123.05 9.82,51.89 12.3,52.76 14.79,53.63 17.28,54.5 19.76,55.37 22.25,56.23 24.73,57.09 27.22,57.95 29.7,58.81 32.19,59.66 34.67,60.51 37.16,61.36 39.65,62.2 42.13,63.04 44.62,63.87 "
         style="fill:#999999;fill-opacity:0.4;stroke:none;stroke-width:0;stroke-linecap:butt;stroke-linejoin:round;stroke-miterlimit:10"
         id="polygon7" /><polyline
         points="9.82,51.89 12.30,52.76 14.79,53.63 17.28,54.50 19.76,55.37 22.25,56.23 24.73,57.09 27.22,57.95 29.70,58.81 32.19,59.66 34.67,60.51 37.16,61.36 39.65,62.20 42.13,63.04 44.62,63.87 47.10,64.70 49.59,65.53 52.07,66.35 54.56,67.16 57.04,67.97 59.53,68.78 62.02,69.57 64.50,70.36 66.99,71.14 69.47,71.92 71.96,72.69 74.44,73.44 76.93,74.19 79.42,74.93 81.90,75.65 84.39,76.37 86.87,77.07 89.36,77.75 91.84,78.43 94.33,79.08 96.81,79.72 99.30,80.34 101.79,80.95 104.27,81.53 106.76,82.09 109.24,82.63 111.73,83.14 114.21,83.63 116.70,84.09 119.19,84.52 121.67,84.93 124.16,85.31 126.64,85.65 129.13,85.97 131.61,86.26 134.10,86.51 136.58,86.74 139.07,86.93 141.56,87.09 144.04,87.23 146.53,87.33 149.01,87.41 151.50,87.46 153.98,87.49 156.47,87.49 158.96,87.47 161.44,87.42 163.93,87.36 166.41,87.27 168.90,87.17 171.38,87.05 173.87,86.92 176.35,86.77 178.84,86.60 181.33,86.42 183.81,86.23 186.30,86.03 188.78,85.82 191.27,85.60 193.75,85.37 196.24,85.13 198.72,84.88 201.21,84.63 203.70,84.36 206.18,84.09 "
         style="fill:none;stroke:none;stroke-width:2.13;stroke-linecap:butt;stroke-linejoin:round;stroke-miterlimit:10"
         id="polyline7" /><polyline
         points="206.18,132.93 203.70,132.13 201.21,131.33 198.72,130.54 196.24,129.76 193.75,128.99 191.27,128.23 188.78,127.47 186.30,126.73 183.81,125.99 181.33,125.27 178.84,124.56 176.35,123.86 173.87,123.18 171.38,122.51 168.90,121.86 166.41,121.22 163.93,120.61 161.44,120.01 158.96,119.43 156.47,118.88 153.98,118.35 151.50,117.84 149.01,117.36 146.53,116.90 144.04,116.48 141.56,116.08 139.07,115.71 136.58,115.37 134.10,115.06 131.61,114.78 129.13,114.54 126.64,114.32 124.16,114.14 121.67,113.98 119.19,113.85 116.70,113.75 114.21,113.68 111.73,113.64 109.24,113.62 106.76,113.63 104.27,113.65 101.79,113.70 99.30,113.77 96.81,113.86 94.33,113.97 91.84,114.09 89.36,114.23 86.87,114.39 84.39,114.55 81.90,114.73 79.42,114.93 76.93,115.13 74.44,115.35 71.96,115.57 69.47,115.80 66.99,116.05 64.50,116.30 62.02,116.55 59.53,116.82 57.04,117.09 54.56,117.37 52.07,117.65 49.59,117.94 47.10,118.23 44.62,118.53 42.13,118.83 39.65,119.13 37.16,119.44 34.67,119.76 32.19,120.07 29.70,120.39 27.22,120.72 24.73,121.04 22.25,121.37 19.76,121.70 17.28,122.04 14.79,122.37 12.30,122.71 9.82,123.05 "
         style="fill:none;stroke:none;stroke-width:2.13;stroke-linecap:butt;stroke-linejoin:round;stroke-miterlimit:10"
         id="polyline8" /></g></g><g
     inkscape:label="Ebene 1"
     inkscape:groupmode="layer"
     id="layer1"><path
       style="font-weight:bold;font-size:40.2126px;font-family:'Reem Kufi';-inkscape-font-specification:'Reem Kufi, Bold';direction:rtl;stroke-width:3.351"
       d="m 261.52924,123.93691 q 0,-2.69424 1.24659,-4.82551 1.28681,-2.13127 3.57892,-3.33765 2.29212,-1.24659 5.26785,-1.24659 3.01595,0 5.22764,1.24659 2.2117,1.20638 3.37786,3.33765 1.20638,2.13127 1.20638,4.82551 0,2.69425 -1.20638,4.86573 -1.16616,2.13126 -3.37786,3.37785 -2.21169,1.2466 -5.30806,1.2466 -2.89531,0 -5.18743,-1.12596 -2.2519,-1.12595 -3.5387,-3.25722 -1.28681,-2.13127 -1.28681,-5.107 z m 5.66998,0.0402 q 0,2.09106 1.20638,3.4985 1.20637,1.36723 3.05615,1.36723 1.97042,0 3.13659,-1.36723 1.16616,-1.40744 1.16616,-3.4985 0,-2.09105 -1.16616,-3.45828 -1.16617,-1.40744 -3.13659,-1.40744 -1.84978,0 -3.05615,1.40744 -1.20638,1.36723 -1.20638,3.45828 z"
       id="path50" /><path
       style="font-weight:bold;font-size:40.2126px;font-family:'Reem Kufi';-inkscape-font-specification:'Reem Kufi, Bold';direction:rtl;stroke-width:3.351"
       d="m 251.47608,115.37163 h 5.62976 v 17.5729 h -5.62976 z"
       id="path48" /><path
       style="font-weight:bold;font-size:40.2126px;font-family:'Reem Kufi';-inkscape-font-specification:'Reem Kufi, Bold';direction:rtl;stroke-width:3.351"
       d="m 237.92441,133.42709 q -2.01063,0 -3.45828,-0.60319 -1.40744,-0.60319 -2.45297,-1.64872 v 1.76935 h -5.62977 v -31.72774 h 5.58956 v 15.36122 q 1.04552,-0.88468 2.77466,-1.48787 1.72915,-0.60319 3.94084,-0.60319 2.29212,0 4.18211,1.08574 1.88999,1.08574 3.01594,3.1768 1.16617,2.05084 1.16617,5.02657 0,2.97573 -1.2868,5.14721 -1.24659,2.17148 -3.33765,3.33765 -2.09105,1.16617 -4.50381,1.16617 z m -1.24659,-4.74509 q 1.24659,0 2.29212,-0.6434 1.08574,-0.6434 1.72914,-1.76936 0.6434,-1.12595 0.6434,-2.53339 0,-1.40744 -0.6434,-2.49318 -0.6434,-1.08574 -1.72914,-1.68893 -1.04553,-0.6434 -2.29212,-0.6434 -1.64872,0 -2.89531,0.76404 -1.24659,0.76404 -1.76935,2.05084 v 4.30275 q 1.44765,2.65403 4.66466,2.65403 z"
       id="path47" /><path
       style="font-weight:bold;font-size:40.2126px;font-family:'Reem Kufi';-inkscape-font-specification:'Reem Kufi, Bold';direction:rtl;stroke-width:3.351;fill:#008000;fill-opacity:1"
       d="m 217.17468,130.04923 q 0,-1.24659 0.88468,-2.09106 0.92489,-0.84446 2.01063,-0.84446 1.00531,0 1.88999,0.84446 0.92489,0.84447 0.92489,2.09106 0,1.32701 -0.92489,2.13126 -0.88468,0.76404 -1.88999,0.76404 -1.08574,0 -2.01063,-0.76404 -0.88468,-0.80425 -0.88468,-2.13126 z"
       id="path46" /><path
       style="font-weight:bold;font-size:40.2126px;font-family:'Reem Kufi';-inkscape-font-specification:'Reem Kufi, Bold';direction:rtl;stroke-width:3.351"
       d="m 208.0464,101.21679 h 5.62977 v 31.72774 h -5.62977 z"
       id="path45" /><path
       style="font-weight:bold;font-size:40.2126px;font-family:'Reem Kufi';-inkscape-font-specification:'Reem Kufi, Bold';direction:rtl;stroke-width:3.351"
       d="m 190.75497,133.42709 q -2.45297,0 -4.4636,-0.96511 -1.97042,-1.00531 -3.13658,-3.05615 -1.16617,-2.05085 -1.16617,-5.22764 0,-2.97574 1.20638,-5.14722 1.20638,-2.17148 3.1768,-3.33764 1.97041,-1.20638 4.18211,-1.20638 2.5736,0 3.90062,0.84447 1.32702,0.80425 2.21169,1.84977 l 0.36192,-1.80956 h 5.22763 v 17.5729 h -5.62976 v -2.17148 q -0.40213,0.40213 -1.20638,1.04553 -0.76404,0.6434 -1.9302,1.12595 -1.16617,0.48256 -2.73446,0.48256 z m 1.6085,-4.58424 q 2.93552,0 4.26254,-2.65403 v -4.30275 q -0.48255,-1.2868 -1.68893,-2.05084 -1.16617,-0.76404 -2.77467,-0.76404 -1.80957,0 -3.13658,1.36723 -1.32702,1.32701 -1.32702,3.45828 0,1.40744 0.6434,2.53339 0.64341,1.12596 1.68893,1.76936 1.08574,0.6434 2.33233,0.6434 z"
       id="path44" /><path
       style="font-weight:bold;font-size:40.2126px;font-family:'Reem Kufi';-inkscape-font-specification:'Reem Kufi, Bold';direction:rtl;stroke-width:3.351"
       d="m 171.93546,115.37163 h 5.62976 v 17.5729 h -5.62976 z"
       id="path42" /><path
       style="font-weight:bold;font-size:40.2126px;font-family:'Reem Kufi';-inkscape-font-specification:'Reem Kufi, Bold';direction:rtl;stroke-width:3.351"
       d="m 157.74044,107.65081 h 5.62976 v 7.64039 h 4.26254 v 4.38318 h -4.26254 v 13.27015 h -5.62976 v -13.27015 h -2.73446 v -4.38318 h 2.73446 z"
       id="path41" /><path
       style="font-weight:bold;font-size:40.2126px;font-family:'Reem Kufi';-inkscape-font-specification:'Reem Kufi, Bold';direction:rtl;stroke-width:3.351"
       d="m 137.31245,115.37163 0.40212,2.81488 q 0.92489,-1.64872 2.61382,-2.65403 1.68893,-1.00532 4.10169,-1.00532 2.49318,0 4.14189,1.48787 1.68893,1.44765 1.72915,3.77998 v 13.14952 h -5.62977 v -11.05846 q -0.0402,-1.16617 -0.6434,-1.84978 -0.56298,-0.72383 -1.9302,-0.72383 -1.97042,0 -3.13659,1.84978 -1.12595,1.80957 -1.12595,4.62445 v 7.15784 h -5.62976 v -17.5729 z"
       id="path40" /><path
       style="font-weight:bold;font-size:40.2126px;font-family:'Reem Kufi';-inkscape-font-specification:'Reem Kufi, Bold';direction:rtl;stroke-width:3.351"
       d="m 118.61361,133.42709 q -3.21701,0 -5.46892,-1.20638 -2.21169,-1.20638 -3.37786,-3.33765 -1.16616,-2.13127 -1.16616,-4.90594 0,-2.65403 1.36723,-4.7853 1.36723,-2.13126 3.65934,-3.37785 2.29212,-1.28681 5.107,-1.28681 3.77999,0 6.19274,2.2117 2.45297,2.17148 3.1768,6.31337 l -12.86803,4.10169 q 1.2868,1.48787 3.49849,1.48787 0.92489,0 1.76936,-0.3217 0.88468,-0.32171 1.72914,-0.84447 l 2.49318,4.18211 q -1.40744,0.80425 -3.05616,1.2868 -1.6085,0.48256 -3.05615,0.48256 z m -4.4636,-9.40975 7.72082,-2.61382 q -0.36192,-1.00532 -1.16617,-1.72914 -0.80425,-0.76404 -2.41275,-0.76404 -1.89,0 -3.01595,1.2868 -1.12595,1.2868 -1.12595,3.45828 0,0.16085 0,0.36192 z"
       id="path39" /><path
       style="font-weight:bold;font-size:40.2126px;font-family:'Reem Kufi';-inkscape-font-specification:'Reem Kufi, Bold';direction:rtl;stroke-width:3.351"
       d="m 99.351793,115.37163 0.442338,4.02126 q 0.764039,-1.52808 2.091059,-2.61382 1.32701,-1.12595 2.61382,-1.68893 1.2868,-0.60319 1.97041,-0.60319 l -0.28149,5.62976 q -1.97041,-0.24127 -3.37785,0.64341 -1.40744,0.88467 -2.17148,2.33233 -0.764044,1.44765 -0.764044,2.97573 v 6.87635 h -5.589551 v -17.5729 z"
       id="path38" /><path
       style="font-weight:bold;font-size:40.2126px;font-family:'Reem Kufi';-inkscape-font-specification:'Reem Kufi, Bold';direction:rtl;stroke-width:3.351"
       d="m 80.693165,133.42709 q -3.217008,0 -5.468914,-1.20638 -2.211693,-1.20638 -3.377858,-3.33765 -1.166165,-2.13127 -1.166165,-4.90594 0,-2.65403 1.367228,-4.7853 1.367228,-2.13126 3.659347,-3.37785 2.292118,-1.28681 5.107,-1.28681 3.779984,0 6.19274,2.2117 2.452969,2.17148 3.176796,6.31337 l -12.868032,4.10169 q 1.286803,1.48787 3.498496,1.48787 0.92489,0 1.769354,-0.3217 0.884678,-0.32171 1.729142,-0.84447 l 2.493181,4.18211 q -1.407441,0.80425 -3.056157,1.2868 -1.608504,0.48256 -3.056158,0.48256 z m -4.463599,-9.40975 7.72082,-2.61382 q -0.361914,-1.00532 -1.166166,-1.72914 -0.804252,-0.76404 -2.412756,-0.76404 -1.889992,0 -3.015945,1.2868 -1.125953,1.2868 -1.125953,3.45828 0,0.16085 0,0.36192 z"
       id="path37" /><path
       style="font-weight:bold;font-size:40.2126px;font-family:'Reem Kufi';-inkscape-font-specification:'Reem Kufi, Bold';direction:rtl;stroke-width:3.351"
       d="M 57.450333,132.94453 V 120.27757 H 54.4746 v -4.98637 h 2.975733 v -6.11231 q 0,-3.45829 1.970417,-5.62977 2.01063,-2.21169 5.790614,-2.21169 1.125953,0 2.493182,0.36191 1.407441,0.3217 2.452968,1.08574 l -2.372543,4.06148 q -0.402126,-0.52277 -0.965102,-0.68362 -0.522764,-0.20106 -1.005316,-0.20106 -1.206378,0 -1.970417,0.80425 -0.764039,0.80425 -0.764039,2.57361 v 5.95146 h 5.308063 v 4.98637 h -5.308063 v 12.66696 z"
       id="path36" /><path
       style="font-weight:bold;font-size:40.2126px;font-family:'Reem Kufi';-inkscape-font-specification:'Reem Kufi, Bold';direction:rtl;stroke-width:3.351"
       d="m 36.982124,115.37163 0.402126,2.81488 q 0.924889,-1.64872 2.613819,-2.65403 1.688929,-1.00532 4.101685,-1.00532 2.493181,0 4.141898,1.48787 1.688929,1.44765 1.729142,3.77998 v 13.14952 h -5.629765 v -11.05846 q -0.04021,-1.16617 -0.643401,-1.84978 -0.562977,-0.72383 -1.930205,-0.72383 -1.970417,0 -3.136583,1.84978 -1.125953,1.80957 -1.125953,4.62445 v 7.15784 h -5.629764 v -17.5729 z"
       id="path35" /><path
       style="font-weight:bold;font-size:40.2126px;font-family:'Reem Kufi';-inkscape-font-specification:'Reem Kufi, Bold';direction:rtl;stroke-width:3.351"
       d="m 20.454728,115.37163 h 5.629764 v 17.5729 h -5.629764 z"
       id="path3" /><path
       style="font-weight:bold;font-size:40.2126px;font-family:'Reem Kufi';-inkscape-font-specification:'Reem Kufi, Bold';direction:rtl;stroke-width:3.351"
       d="m 273.59296,183.5722 q -2.17148,0 -4.06147,-0.76404 -1.84978,-0.76404 -3.13659,-2.13127 l 2.33233,-3.09637 q 1.28681,1.16617 2.37255,1.68893 1.12595,0.48255 2.01063,0.48255 1.04553,0 1.72914,-0.3217 0.68361,-0.3217 0.68361,-1.04553 0,-0.68361 -0.56297,-1.08574 -0.52277,-0.40212 -1.36723,-0.6434 -0.84447,-0.28149 -1.80957,-0.56298 -2.41275,-0.76403 -3.49849,-2.21169 -1.04553,-1.48786 -1.04553,-3.21701 0,-1.32701 0.68361,-2.65403 0.72383,-1.36723 2.25191,-2.2519 1.56829,-0.92489 4.02126,-0.92489 2.21169,0 3.73977,0.44234 1.52808,0.44233 2.89531,1.44765 l -2.13127,3.29743 q -0.76404,-0.60319 -1.72914,-1.00531 -0.92489,-0.44234 -1.72914,-0.48255 -1.08574,-0.0402 -1.68893,0.40212 -0.60319,0.40213 -0.60319,0.9651 -0.0402,0.96511 0.88467,1.40745 0.96511,0.40212 2.13127,0.72382 0.28149,0.0804 0.52277,0.16085 0.28148,0.0804 0.52276,0.16085 1.88999,0.6434 3.01594,1.84978 1.12596,1.16617 1.12596,3.13659 0,1.6085 -0.84447,3.05615 -0.80425,1.40744 -2.49318,2.29212 -1.64871,0.88468 -4.22232,0.88468 z"
       id="path61" /><path
       style="font-weight:bold;font-size:40.2126px;font-family:'Reem Kufi';-inkscape-font-specification:'Reem Kufi, Bold';direction:rtl;stroke-width:3.351"
       d="m 263.53982,181.64199 q -1.16617,0.92489 -2.93552,1.48787 -1.72914,0.56298 -3.41807,0.56298 -4.50381,0 -7.23827,-2.45297 -2.69424,-2.45297 -2.69424,-6.83614 0,-2.93552 1.32701,-4.98637 1.32702,-2.09105 3.45829,-3.17679 2.17148,-1.08574 4.54402,-1.08574 2.37254,0 4.10168,0.6434 1.76936,0.6434 3.01595,1.68893 l -2.73446,3.61913 q -0.56297,-0.44234 -1.56829,-0.88467 -0.9651,-0.48256 -2.29212,-0.48256 -1.72914,0 -2.97573,1.32702 -1.24659,1.2868 -1.24659,3.33765 0,1.97041 1.2868,3.33764 1.32702,1.36723 3.4985,1.36723 1.84978,0 3.05616,-1.00532 z"
       id="path60" /><path
       style="font-weight:bold;font-size:40.2126px;font-family:'Reem Kufi';-inkscape-font-specification:'Reem Kufi, Bold';direction:rtl;stroke-width:3.351"
       d="m 237.20054,165.63738 h 5.62977 v 17.57291 h -5.62977 z"
       id="path58" /><path
       style="font-weight:bold;font-size:40.2126px;font-family:'Reem Kufi';-inkscape-font-specification:'Reem Kufi, Bold';direction:rtl;stroke-width:3.351"
       d="m 223.00553,157.91656 h 5.62977 v 7.64039 h 4.26253 v 4.38318 h -4.26253 v 13.27016 h -5.62977 v -13.27016 h -2.73446 v -4.38318 h 2.73446 z"
       id="path57" /><path
       style="font-weight:bold;font-size:40.2126px;font-family:'Reem Kufi';-inkscape-font-specification:'Reem Kufi, Bold';direction:rtl;stroke-width:3.351"
       d="m 209.09195,183.5722 q -2.17148,0 -4.06147,-0.76404 -1.84978,-0.76404 -3.13658,-2.13127 l 2.33233,-3.09637 q 1.2868,1.16617 2.37254,1.68893 1.12595,0.48255 2.01063,0.48255 1.04553,0 1.72914,-0.3217 0.68362,-0.3217 0.68362,-1.04553 0,-0.68361 -0.56298,-1.08574 -0.52276,-0.40212 -1.36723,-0.6434 -0.84446,-0.28149 -1.80957,-0.56298 -2.41275,-0.76403 -3.49849,-2.21169 -1.04553,-1.48786 -1.04553,-3.21701 0,-1.32701 0.68362,-2.65403 0.72382,-1.36723 2.2519,-2.2519 1.56829,-0.92489 4.02126,-0.92489 2.21169,0 3.73977,0.44234 1.52808,0.44233 2.89531,1.44765 l -2.13127,3.29743 q -0.76404,-0.60319 -1.72914,-1.00531 -0.92489,-0.44234 -1.72914,-0.48255 -1.08574,-0.0402 -1.68893,0.40212 -0.60319,0.40213 -0.60319,0.9651 -0.0402,0.96511 0.88468,1.40745 0.9651,0.40212 2.13127,0.72382 0.28148,0.0804 0.52276,0.16085 0.28149,0.0804 0.52276,0.16085 1.89,0.6434 3.01595,1.84978 1.12595,1.16617 1.12595,3.13659 0,1.6085 -0.84446,3.05615 -0.80426,1.40744 -2.49319,2.29212 -1.64871,0.88468 -4.22232,0.88468 z"
       id="path56" /><path
       style="font-weight:bold;font-size:40.2126px;font-family:'Reem Kufi';-inkscape-font-specification:'Reem Kufi, Bold';direction:rtl;stroke-width:3.351"
       d="m 191.96137,165.63738 h 5.62976 v 17.57291 h -5.62976 z"
       id="path54" /><path
       style="font-weight:bold;font-size:40.2126px;font-family:'Reem Kufi';-inkscape-font-specification:'Reem Kufi, Bold';direction:rtl;stroke-width:3.351"
       d="m 177.76636,157.91656 h 5.62976 v 7.64039 h 4.26254 v 4.38318 h -4.26254 v 13.27016 h -5.62976 v -13.27016 h -2.73446 v -4.38318 h 2.73446 z"
       id="path53" /><path
       style="font-weight:bold;font-size:40.2126px;font-family:'Reem Kufi';-inkscape-font-specification:'Reem Kufi, Bold';direction:rtl;stroke-width:3.351"
       d="m 158.82621,183.69284 q -2.45297,0 -4.4636,-0.96511 -1.97042,-1.00531 -3.13658,-3.05615 -1.16617,-2.05085 -1.16617,-5.22764 0,-2.97573 1.20638,-5.14721 1.20638,-2.17149 3.17679,-3.33765 1.97042,-1.20638 4.18211,-1.20638 2.57361,0 3.90063,0.84447 1.32701,0.80425 2.21169,1.84978 l 0.36191,-1.80957 h 5.22764 v 17.57291 h -5.62976 v -2.17149 q -0.40213,0.40213 -1.20638,1.04553 -0.76404,0.6434 -1.93021,1.12596 -1.16616,0.48255 -2.73445,0.48255 z m 1.6085,-4.58424 q 2.93552,0 4.26254,-2.65403 v -4.30275 q -0.48255,-1.2868 -1.68893,-2.05084 -1.16617,-0.76404 -2.77467,-0.76404 -1.80957,0 -3.13658,1.36723 -1.32702,1.32701 -1.32702,3.45828 0,1.40744 0.6434,2.53339 0.6434,1.12596 1.68893,1.76936 1.08574,0.6434 2.33233,0.6434 z"
       id="path52" /><path
       style="font-weight:bold;font-size:40.2126px;font-family:'Reem Kufi';-inkscape-font-specification:'Reem Kufi, Bold';direction:rtl;stroke-width:3.351"
       d="m 137.23208,157.91656 h 5.62976 v 7.64039 h 4.26254 v 4.38318 h -4.26254 v 13.27016 h -5.62976 v -13.27016 h -2.73446 v -4.38318 h 2.73446 z"
       id="path51" /><path
       style="font-weight:bold;font-size:40.2126px;font-family:'Reem Kufi';-inkscape-font-specification:'Reem Kufi, Bold';direction:rtl;stroke-width:3.351"
       d="m 123.3185,183.5722 q -2.17148,0 -4.06147,-0.76404 -1.84978,-0.76404 -3.13659,-2.13127 l 2.33233,-3.09637 q 1.28681,1.16617 2.37255,1.68893 1.12595,0.48255 2.01063,0.48255 1.04553,0 1.72914,-0.3217 0.68361,-0.3217 0.68361,-1.04553 0,-0.68361 -0.56297,-1.08574 -0.52277,-0.40212 -1.36723,-0.6434 -0.84447,-0.28149 -1.80957,-0.56298 -2.41275,-0.76403 -3.49849,-2.21169 -1.04553,-1.48786 -1.04553,-3.21701 0,-1.32701 0.68361,-2.65403 0.72383,-1.36723 2.25191,-2.2519 1.56829,-0.92489 4.02126,-0.92489 2.21169,0 3.73977,0.44234 1.52808,0.44233 2.89531,1.44765 l -2.13127,3.29743 q -0.76404,-0.60319 -1.72914,-1.00531 -0.92489,-0.44234 -1.72914,-0.48255 -1.08574,-0.0402 -1.68893,0.40212 -0.60319,0.40213 -0.60319,0.9651 -0.0402,0.96511 0.88467,1.40745 0.96511,0.40212 2.13127,0.72382 0.28149,0.0804 0.52277,0.16085 0.28148,0.0804 0.52276,0.16085 1.88999,0.6434 3.01595,1.84978 1.12595,1.16617 1.12595,3.13659 0,1.6085 -0.84447,3.05615 -0.80425,1.40744 -2.49318,2.29212 -1.64871,0.88468 -4.22232,0.88468 z"
       id="path4" /><text
       xml:space="preserve"
       id="text2"
       style="white-space:pre;shape-inside:url(#rect2);display:inline;fill:#000000" /><rect
       style="fill:none;stroke:#000000;stroke-width:4.14504;stroke-dasharray:none;stroke-opacity:1"
       id="rect3"
       width="286.61969"
       height="285.96432"
       x="6.8540096"
       y="7.0178542" /><path
       style="font-weight:bold;font-size:40.2126px;font-family:'Reem Kufi';-inkscape-font-specification:'Reem Kufi, Bold';direction:rtl;stroke-width:3.351;fill:#0000ff;fill-opacity:1"
       d="m 20.347897,108.81044 q 0,-1.24658 0.88468,-2.09105 0.92489,-0.84446 2.01063,-0.84446 1.00531,0 1.88999,0.84446 0.92489,0.84447 0.92489,2.09105 0,1.32701 -0.92489,2.13126 -0.88468,0.76404 -1.88999,0.76404 -1.08574,0 -2.01063,-0.76404 -0.88468,-0.80425 -0.88468,-2.13126 z"
       id="path46-3" /><path
       style="font-weight:bold;font-size:40.2126px;font-family:'Reem Kufi';-inkscape-font-specification:'Reem Kufi, Bold';direction:rtl;stroke-width:3.351;fill:#ff0000;fill-opacity:1"
       d="m 171.90114,108.62475 q 0,-1.24658 0.88468,-2.09105 0.92489,-0.84446 2.01063,-0.84446 1.00531,0 1.88999,0.84446 0.92489,0.84447 0.92489,2.09105 0,1.32701 -0.92489,2.13126 -0.88468,0.76404 -1.88999,0.76404 -1.08574,0 -2.01063,-0.76404 -0.88468,-0.80425 -0.88468,-2.13126 z"
       id="path46-3-5" /><path
       style="font-weight:bold;font-size:40.2126px;font-family:'Reem Kufi';-inkscape-font-specification:'Reem Kufi, Bold';direction:rtl;stroke-width:3.351;fill:#ff6600;fill-opacity:1"
       d="m 192.18678,158.9082 q 0,-1.24658 0.88468,-2.09105 0.92489,-0.84446 2.01063,-0.84446 1.00531,0 1.88999,0.84446 0.92489,0.84447 0.92489,2.09105 0,1.32701 -0.92489,2.13126 -0.88468,0.76404 -1.88999,0.76404 -1.08574,0 -2.01063,-0.76404 -0.88468,-0.80425 -0.88468,-2.13126 z"
       id="path46-3-5-33" /><path
       style="font-weight:bold;font-size:40.2126px;font-family:'Reem Kufi';-inkscape-font-specification:'Reem Kufi, Bold';direction:rtl;stroke-width:3.351;fill:#00ffff;fill-opacity:1"
       d="m 237.10814,158.60782 q 0,-1.24658 0.88468,-2.09105 0.92489,-0.84446 2.01063,-0.84446 1.00531,0 1.88999,0.84446 0.92489,0.84447 0.92489,2.09105 0,1.32701 -0.92489,2.13126 -0.88468,0.76404 -1.88999,0.76404 -1.08574,0 -2.01063,-0.76404 -0.88468,-0.80425 -0.88468,-2.13126 z"
       id="path46-3-5-33-7" /><path
       style="font-weight:bold;font-size:40.2126px;font-family:'Reem Kufi';-inkscape-font-specification:'Reem Kufi, Bold';direction:rtl;stroke-width:3.351;fill:#ff00ff;fill-opacity:1"
       d="m 251.43637,108.78859 q 0,-1.24658 0.88468,-2.09105 0.92489,-0.84446 2.01063,-0.84446 1.00531,0 1.88999,0.84446 0.92489,0.84447 0.92489,2.09105 0,1.32701 -0.92489,2.13126 -0.88468,0.76404 -1.88999,0.76404 -1.08574,0 -2.01063,-0.76404 -0.88468,-0.80425 -0.88468,-2.13126 z"
       id="path46-3-5-3" /></g></svg>
